<svg width="525" height="628" viewBox="0 0 525 628" fill="none" xmlns="http://www.w3.org/2000/svg">
<g id="undraw_reminder_re_fe15 1" clip-path="url(#clip0_1_2)">
<g id="Group">
<path id="Vector" d="M347.899 -6H142.23C118.907 -6 100 12.907 100 36.2299V576.663C100 599.986 118.907 618.893 142.23 618.893H347.899C371.222 618.893 390.129 599.986 390.129 576.663V36.2299C390.129 12.907 371.222 -6 347.899 -6H347.899Z" fill="white"/>
<path id="Vector_2" d="M83.2739 90.5664C81.4683 90.5664 80 92.0347 80 93.8404V120.032C80 121.837 81.4683 123.306 83.2739 123.306C85.0795 123.306 86.5478 121.837 86.5478 120.032V93.8404C86.5478 92.0347 85.0795 90.5664 83.2739 90.5664Z" fill="#3F3D56"/>
<path id="Vector_3" d="M363.066 83.4612H280.398C276.892 83.4612 274.039 80.6085 274.039 77.1022C274.039 73.5958 276.892 70.7431 280.398 70.7431H363.066C366.572 70.7431 369.425 73.5958 369.425 77.1022C369.425 80.6085 366.572 83.4612 363.066 83.4612Z" fill="#E6E6E6"/>
<path id="Vector_4" d="M285.512 133.469H205.155C203.129 133.469 201.481 131.82 201.481 129.794C201.481 127.768 203.129 126.121 205.155 126.121H285.512C287.538 126.121 289.186 127.768 289.186 129.794C289.186 131.82 287.538 133.469 285.512 133.469V133.469Z" fill="#6C63FF"/>
<path id="Vector_5" d="M171.936 10.6578H126.058C125.887 10.6578 125.748 10.7967 125.748 10.968V16.3089C125.748 16.4802 125.887 16.6191 126.058 16.6191H171.936C172.107 16.6191 172.246 16.4802 172.246 16.3089V10.968C172.246 10.7967 172.107 10.6578 171.936 10.6578Z" fill="#E6E6E6"/>
<path id="Vector_6" d="M326.467 16.6191C329.1 16.6191 331.236 14.4839 331.236 11.8501C331.236 9.21622 329.1 7.08105 326.467 7.08105C323.833 7.08105 321.698 9.21622 321.698 11.8501C321.698 14.4839 323.833 16.6191 326.467 16.6191Z" fill="#E6E6E6"/>
<path id="Vector_7" d="M339.581 16.6191C342.215 16.6191 344.35 14.4839 344.35 11.8501C344.35 9.21622 342.215 7.08105 339.581 7.08105C336.948 7.08105 334.812 9.21622 334.812 11.8501C334.812 14.4839 336.948 16.6191 339.581 16.6191Z" fill="#E6E6E6"/>
<path id="Vector_8" d="M352.696 16.6191C355.33 16.6191 357.465 14.4839 357.465 11.8501C357.465 9.21622 355.33 7.08105 352.696 7.08105C350.062 7.08105 347.927 9.21622 347.927 11.8501C347.927 14.4839 350.062 16.6191 352.696 16.6191Z" fill="#E6E6E6"/>
<path id="Vector_9" d="M141.999 153.136C141.999 153.796 142.529 154.326 143.189 154.326H347.479C348.139 154.326 348.669 153.796 348.669 153.136C348.669 152.476 348.139 151.946 347.479 151.946H143.189C142.529 151.946 141.999 152.476 141.999 153.136V153.136Z" fill="#3F3D56"/>
<g id="Group_2">
<path id="Vector_10" d="M331.783 233.128H209.185C207.159 233.128 205.51 231.48 205.51 229.454C205.51 227.428 207.159 225.78 209.185 225.78H331.783C333.808 225.78 335.456 227.428 335.456 229.454C335.456 231.48 333.808 233.128 331.783 233.128Z" fill="#6C63FF"/>
<path id="Vector_11" d="M331.783 286.128H209.185C207.159 286.128 205.51 284.48 205.51 282.454C205.51 280.428 207.159 278.78 209.185 278.78H331.783C333.808 278.78 335.456 280.428 335.456 282.454C335.456 284.48 333.808 286.128 331.783 286.128V286.128Z" fill="#6C63FF"/>
<path id="Vector_12" d="M331.783 339.128H209.185C207.159 339.128 205.51 337.48 205.51 335.454C205.51 333.428 207.159 331.78 209.185 331.78H331.783C333.808 331.78 335.456 333.428 335.456 335.454C335.456 337.48 333.808 339.128 331.783 339.128V339.128Z" fill="#6C63FF"/>
<path id="Vector_13" d="M172 238C176.971 238 181 233.971 181 229C181 224.029 176.971 220 172 220C167.029 220 163 224.029 163 229C163 233.971 167.029 238 172 238Z" fill="#6C63FF"/>
<path id="Vector_14" d="M171 244V242C178.444 242 184.5 235.944 184.5 228.5C184.5 221.056 178.444 215 171 215V213C179.547 213 186.5 219.953 186.5 228.5C186.5 237.047 179.547 244 171 244Z" fill="#3F3D56"/>
<path id="Vector_15" d="M172 291C176.971 291 181 286.971 181 282C181 277.029 176.971 273 172 273C167.029 273 163 277.029 163 282C163 286.971 167.029 291 172 291Z" fill="#6C63FF"/>
<path id="Vector_16" d="M171 297V295C178.444 295 184.5 288.944 184.5 281.5C184.5 274.056 178.444 268 171 268V266C179.547 266 186.5 272.953 186.5 281.5C186.5 290.047 179.547 297 171 297Z" fill="#3F3D56"/>
<path id="Vector_17" d="M172 344C176.971 344 181 339.971 181 335C181 330.029 176.971 326 172 326C167.029 326 163 330.029 163 335C163 339.971 167.029 344 172 344Z" fill="#6C63FF"/>
<path id="Vector_18" d="M171 350V348C178.444 348 184.5 341.944 184.5 334.5C184.5 327.056 178.444 321 171 321V319C179.547 319 186.5 325.953 186.5 334.5C186.5 343.047 179.547 350 171 350Z" fill="#3F3D56"/>
</g>
</g>
<g id="check-bg">
<path id="Vector_19" d="M78.899 153.602C114.742 153.602 143.798 125.158 143.798 90.07C143.798 54.9825 114.742 26.5385 78.899 26.5385C43.0563 26.5385 14 54.9825 14 90.07C14 125.158 43.0563 153.602 78.899 153.602Z" fill="#2DCE50"/>
</g>
<g id="check">
<path id="Vector_20" d="M100.926 58.0243C92.2857 73.7569 83.6456 89.4897 75.0055 105.222C69.4988 95.4929 64.0222 85.7462 58.502 76.0243C56.5956 72.6667 51.41 75.6866 53.3213 79.0526C59.7204 90.3225 66.0532 101.63 72.4523 112.9C73.5464 114.827 76.5503 114.871 77.6331 112.9C87.1243 95.6174 96.6154 78.3349 106.107 61.0526C107.966 57.6661 102.787 54.6352 100.926 58.0243H100.926Z" fill="white"/>
</g>
</g>
<defs>
<clipPath id="clip0_1_2">
<rect width="524.67" height="627.583" fill="white"/>
</clipPath>
</defs>
</svg>
